<svg xmlns="http://www.w3.org/2000/svg" viewBox="0 0 256 320" width="256" height="320">
  <defs>
    <linearGradient id="shieldSplit" x1="0" y1="0" x2="1" y2="0">
      <stop offset="50%" stop-color="#6FA9C1"/>
      <stop offset="50%" stop-color="#4F87A3"/>
    </linearGradient>
    <style>
      .stroke{stroke:#0E3A4A;stroke-width:8;stroke-linejoin:round}
      .fill-dark{fill:#0E3A4A}
    </style>
  </defs>

  <path class="stroke" fill="url(#shieldSplit)" d="M128 20 L216 56 V120c0 60-44 100-88 116-44-16-88-56-88-116V56z"/>

  <rect x="96" y="96" width="64" height="64" rx="12" class="fill-dark"/>
  <circle cx="128" cy="128" r="10" fill="#112F3A"/>
  <path d="M128 118 v22" stroke="#112F3A" stroke-width="6" stroke-linecap="round"/>

  <path d="M104 96 v-16a24 24 0 0 1 48 0v16" fill="none" stroke="#0E3A4A" stroke-width="10" stroke-linecap="round"/>

  <path d="M160 120 h36" stroke="#0E3A4A" stroke-width="8" stroke-linecap="round"/>
  <circle cx="204" cy="120" r="8" fill="#0E3A4A"/>
  <path d="M160 144 h28" stroke="#0E3A4A" stroke-width="8" stroke-linecap="round"/>
  <circle cx="196" cy="144" r="8" fill="#0E3A4A"/>
  <path d="M160 168 h20" stroke="#0E3A4A" stroke-width="8" stroke-linecap="round"/>
  <circle cx="188" cy="168" r="8" fill="#0E3A4A"/>

  <text x="128" y="300" text-anchor="middle" font-family="Segoe UI, Roboto, Helvetica, Arial, sans-serif" font-size="44" font-weight="800" fill="#0E3A4A">SANTIAGO</text>
</svg>
